<?xml version="1.0" encoding="UTF-8" standalone="no"?>
<!-- Created with Inkscape (http://www.inkscape.org/) -->
<svg xmlns:dc="http://purl.org/dc/elements/1.1/" xmlns:cc="http://creativecommons.org/ns#" xmlns:rdf="http://www.w3.org/1999/02/22-rdf-syntax-ns#" xmlns:svg="http://www.w3.org/2000/svg" xmlns="http://www.w3.org/2000/svg" xmlns:sodipodi="http://sodipodi.sourceforge.net/DTD/sodipodi-0.dtd" xmlns:inkscape="http://www.inkscape.org/namespaces/inkscape" width="268.95895" height="361.7175" id="svg3493" version="1.1" inkscape:version="0.48.0 r9654" sodipodi:docname="Icon - Fire - Monochrome.svg">
  <title id="title3514">Fire (Monochrome; Icon)</title>
  <defs id="defs3"/>
  <sodipodi:namedview inkscape:document-units="mm" id="base" pagecolor="#ffffff" bordercolor="#666666" borderopacity="1.0" inkscape:pageopacity="0.0" inkscape:pageshadow="2" inkscape:zoom="0.35" inkscape:cx="-267.71924" inkscape:cy="372.27678" inkscape:current-layer="layer1" showgrid="false" fit-margin-top="0" fit-margin-left="0" fit-margin-right="0" fit-margin-bottom="0" inkscape:window-width="1024" inkscape:window-height="719" inkscape:window-x="-4" inkscape:window-y="-4" inkscape:window-maximized="1" borderlayer="true"/>
  <metadata id="metadata4">
    <rdf:RDF>
      <cc:Work rdf:about="">
        <dc:format>image/svg+xml</dc:format>
        <dc:type rdf:resource="http://purl.org/dc/dcmitype/StillImage"/>
        <dc:title>Fire (Monochrome; Icon)</dc:title>
        <dc:date>2011-01-05</dc:date>
        <dc:creator>
          <cc:Agent>
            <dc:title>Urs Roesch</dc:title>
          </cc:Agent>
        </dc:creator>
        <cc:license rdf:resource="http://creativecommons.org/licenses/publicdomain/"/>
        <dc:rights>
          <cc:Agent>
            <dc:title>Public Domain</dc:title>
          </cc:Agent>
        </dc:rights>
        <dc:publisher>
          <cc:Agent>
            <dc:title>OpenClipart</dc:title>
          </cc:Agent>
        </dc:publisher>
        <dc:subject>
          <rdf:Bag>
            <rdf:li>Fire</rdf:li>
            <rdf:li>Icon</rdf:li>
            <rdf:li>Monochrome</rdf:li>
            <rdf:li>Black &amp; White</rdf:li>
            <rdf:li>Symbol</rdf:li>
          </rdf:Bag>
        </dc:subject>
        <dc:description>Monochrome fire icon</dc:description>
      </cc:Work>
      <cc:License rdf:about="http://creativecommons.org/licenses/publicdomain/">
        <cc:permits rdf:resource="http://creativecommons.org/ns#Reproduction"/>
        <cc:permits rdf:resource="http://creativecommons.org/ns#Distribution"/>
        <cc:permits rdf:resource="http://creativecommons.org/ns#DerivativeWorks"/>
      </cc:License>
    </rdf:RDF>
  </metadata>
  <g inkscape:label="Layer 1" inkscape:groupmode="layer" id="layer1" transform="translate(-225.523, -534.348)">
    <g transform="translate(-3659.68, -684.489)" id="g3468">
      <path style="opacity: 0.98; fill: rgb(255, 255, 255); fill-opacity: 1; stroke: rgb(0, 0, 0); stroke-width: 0pt; stroke-linejoin: miter; stroke-miterlimit: 4; stroke-opacity: 1; stroke-dasharray: none; stroke-dashoffset: 0pt;" d="m 4036.9062,1219.0312 c -18.0261,-1.3288 -35.0449,7.5533 -47.1377,20.339 -16.6539,17.3525 -28.1079,39.1542 -36.1435,61.7236 -2.7322,-10.1294 -10.0117,-18.4856 -19.1875,-23.3438 -3.0682,-3.4323 -8.3196,-6.2437 -12.5313,-2.875 2.5552,17.0914 1.2236,35.6461 -9.592,49.6426 -23.9299,46.1815 -29.3704,99.711 -26.2548,151.0687 4.6803,39.1757 31.6989,73.9846 67.4406,89.8199 44.2026,21.7157 100.3382,20.7353 141.3906,-7.5605 43.1121,-28.5551 68.3271,-84.0589 56.1406,-135.2207 -7.4176,-36.003 -27.0988,-68.0942 -37,-103.25 -1.7397,-7.3994 0.4682,-15.7765 -1.6874,-22.8438 -3.8989,-4.4202 -9.3293,0.7915 -11.7813,4.0938 -7.9226,6.8491 -14.0271,15.9986 -17.25,26.0625 -9.7729,-22.0488 -27.331,-39.0596 -41.6424,-58.1995 -9.2329,-14.6941 -11.4171,-34.8142 -1.2326,-49.5505 -1.1771,0.031 -2.3542,0.062 -3.5313,0.094 z" id="path3470" inkscape:connector-curvature="0"/>
      <path style="opacity: 0.98; fill: rgb(0, 0, 0); fill-opacity: 1; stroke: rgb(0, 0, 0); stroke-width: 0pt; stroke-linejoin: miter; stroke-miterlimit: 4; stroke-opacity: 1; stroke-dasharray: none; stroke-dashoffset: 0pt;" d="m 4030.7955,1225.2238 c -43.1372,0 -80.5263,77.2555 -81.8673,129.5911 6.0311,-66.0069 -8.0125,-63.7326 -20.4062,-74.0804 0,0 2.5123,23.2957 -5.0061,36.3777 -19.3277,30.3319 -33.1081,76.9166 -32.4333,142.5996 0.6748,65.6829 49.6628,104.6682 109.1705,113.5242 l 0.6422,0.09 c 70.2273,10.0951 135.4708,-38.0097 145.9971,-107.6331 4.155,-27.4817 -3.4406,-53.2446 -12.6954,-77.2055 -5.0821,-13.1578 -25.1979,-60.0016 -26.2513,-68.2689 -1.0482,-8.2263 -0.5879,-17.7756 -0.5879,-17.7756 -11.4135,10.0553 -22.6244,22.8733 -21.0543,51.5575 -8.196,-32.1384 -22.125,-49.5627 -39.8628,-69.2791 -29.391,-33.041 -15.6452,-59.4979 -15.6452,-59.4979 z" id="path3472" inkscape:connector-curvature="0" sodipodi:nodetypes="cccczccssscccc"/>
      <path style="opacity: 0.98; fill: rgb(255, 255, 255); fill-opacity: 1; stroke: rgb(0, 0, 0); stroke-width: 0pt; stroke-linejoin: miter; stroke-miterlimit: 4; stroke-opacity: 1; stroke-dasharray: none; stroke-dashoffset: 0pt;" d="m 4013.0571,1246.379 c -14.0097,9.9596 -23.0153,25.1878 -31.1337,40.0337 -9.8961,19.5017 -15.0549,40.9817 -19.1868,62.359 -3.701,9.1132 -18.0668,11.0774 -23.866,3.0016 -4.8462,-5.9812 -3.2779,-14.1956 -3.0868,-21.2914 0.04,-2.0276 0.083,-4.0553 0.09,-6.0833 -5.351,10.4061 -11.6591,20.3246 -15.1283,31.5479 -12.5497,34.4879 -15.7175,71.6507 -15.0382,108.1623 0.9782,19.6425 7.321,39.3751 20.0157,54.5784 17.6861,22.0223 44.7429,34.8101 72.2735,39.6207 28.4544,4.8253 58.8679,-0.1903 83.1634,-16.0423 29.03,-18.392 49.5685,-50.2989 52.0357,-84.8266 1.4376,-18.5415 -2.4259,-37.0819 -9.0134,-54.3017 -6.9455,-19.8974 -16.0645,-38.9547 -23.4608,-58.6684 -0.4285,5.6834 0.2689,11.6554 -1.7074,17.0851 -3.7554,7.589 -15.1567,10.3363 -21.5063,4.342 -6.3049,-5.1759 -6.0921,-14.0872 -8.9546,-21.1114 -7.5247,-20.7306 -21.3083,-38.5406 -36.3307,-54.3867 -10.1822,-12.5651 -17.7951,-27.7976 -18.9848,-44.1433 l -0.1809,0.1244 z" id="path3474" inkscape:connector-curvature="0"/>
      <path style="opacity: 0.98; fill: rgb(0, 0, 0); fill-opacity: 1; stroke: rgb(0, 0, 0); stroke-width: 0pt; stroke-linejoin: miter; stroke-miterlimit: 4; stroke-opacity: 1; stroke-dasharray: none; stroke-dashoffset: 0pt;" d="m 4010.6289,1348.2957 c -16.3942,49.1366 -62.1885,76.0217 -62.7506,144.9823 -2.3194,41.4941 26.6502,62.1624 40.1237,65.2403 28.7623,6.9738 59.3233,5.7534 83.4483,-14.1554 20.5415,-16.8611 36.3893,-47.2397 29.9024,-73.3984 -1.33,-5.3632 -3.6221,-23.8087 -14.7899,-36.1151 -13.884,-15.2995 -22.2444,-41.4336 -24.7779,-46.2972 -8.9265,16.985 -10.592,25.1279 -8.4182,39.302 1.7773,11.5882 -13.224,-8.3249 -17.5468,-29.7765 -3.0396,-15.0843 -14.7569,-39.2832 -24.8971,-50.6301 -0.098,-13.6064 -0.1959,-10.3998 -0.2939,0.8481 z" id="path3476" inkscape:connector-curvature="0" sodipodi:nodetypes="ccccsscsscc"/>
    </g>
  </g>
</svg>