<?xml version="1.0" encoding="utf-8"?>
<!-- Generator: Adobe Illustrator 15.0.0, SVG Export Plug-In . SVG Version: 6.00 Build 0)  -->
<!DOCTYPE svg PUBLIC "-//W3C//DTD SVG 1.0//EN" "http://www.w3.org/TR/2001/REC-SVG-20010904/DTD/svg10.dtd">
<svg version="1.0" id="Layer_1" xmlns="http://www.w3.org/2000/svg" xmlns:xlink="http://www.w3.org/1999/xlink" x="0px" y="0px"
	 width="612px" height="792px" viewBox="0 0 612 792" enable-background="new 0 0 612 792" xml:space="preserve">
<rect id="rect3388" x="16" fill="#FFFFFF" stroke="#010101" stroke-width="4" width="32" height="16"/>
<rect id="rect3390" x="48" fill="#FFFFFF" stroke="#010101" stroke-width="4" width="32" height="16"/>
<rect id="rect3392" x="80" fill="#FFFFFF" stroke="#010101" stroke-width="4" width="32" height="16"/>
<rect id="rect3394" x="112" fill="#FFFFFF" stroke="#010101" stroke-width="4" width="32" height="16"/>
<rect id="rect3404" y="16" fill="#FFFFFF" stroke="#010101" stroke-width="4" width="32" height="16"/>
<rect id="rect3406" x="32" y="16" fill="#FFFFFF" stroke="#010101" stroke-width="4" width="32" height="16"/>
<rect id="rect3408" x="64" y="16" fill="#FFFFFF" stroke="#010101" stroke-width="4" width="32" height="16"/>
<rect id="rect3410" x="96" y="16" fill="#FFFFFF" stroke="#010101" stroke-width="4" width="32" height="16"/>
<rect id="rect3422" x="16" y="32" fill="#FFFFFF" stroke="#010101" stroke-width="4" width="32" height="16"/>
<rect id="rect3424" x="48" y="32" fill="#FFFFFF" stroke="#010101" stroke-width="4" width="32" height="16"/>
<rect id="rect3426" x="80" y="32" fill="#FFFFFF" stroke="#010101" stroke-width="4" width="32" height="16"/>
<rect id="rect3428" x="112" y="32" fill="#FFFFFF" stroke="#010101" stroke-width="4" width="32" height="16"/>
<rect id="rect3438" y="48" fill="#FFFFFF" stroke="#010101" stroke-width="4" width="32" height="16"/>
<rect id="rect3440" x="32" y="48" fill="#FFFFFF" stroke="#010101" stroke-width="4" width="32" height="16"/>
<rect id="rect3442" x="64" y="48" fill="#FFFFFF" stroke="#010101" stroke-width="4" width="32" height="16"/>
<rect id="rect3444" x="96" y="48" fill="#FFFFFF" stroke="#010101" stroke-width="4" width="32" height="16"/>
<rect id="rect3456" x="16" y="64" fill="#FFFFFF" stroke="#010101" stroke-width="4" width="32" height="16"/>
<rect id="rect3458" x="48" y="64" fill="#FFFFFF" stroke="#010101" stroke-width="4" width="32" height="16"/>
<rect id="rect3460" x="80" y="64" fill="#FFFFFF" stroke="#010101" stroke-width="4" width="32" height="16"/>
<rect id="rect3462" x="112" y="64" fill="#FFFFFF" stroke="#010101" stroke-width="4" width="32" height="16"/>
<rect id="rect3472" y="80" fill="#FFFFFF" stroke="#010101" stroke-width="4" width="32" height="16"/>
<rect id="rect3474" x="32" y="80" fill="#FFFFFF" stroke="#010101" stroke-width="4" width="32" height="16"/>
<rect id="rect3476" x="64" y="80" fill="#FFFFFF" stroke="#010101" stroke-width="4" width="32" height="16"/>
<rect id="rect3478" x="96" y="80" fill="#FFFFFF" stroke="#010101" stroke-width="4" width="32" height="16"/>
<rect id="rect3490" x="16" y="96" fill="#FFFFFF" stroke="#010101" stroke-width="4" width="32" height="16"/>
<rect id="rect3492" x="48" y="96" fill="#FFFFFF" stroke="#010101" stroke-width="4" width="32" height="16"/>
<rect id="rect3494" x="80" y="96" fill="#FFFFFF" stroke="#010101" stroke-width="4" width="32" height="16"/>
<rect id="rect3496" x="112" y="96" fill="#FFFFFF" stroke="#010101" stroke-width="4" width="32" height="16"/>
</svg>
